<?xml version="1.0" encoding="iso-8859-1"?>
<!-- Generator: Adobe Illustrator 19.1.0, SVG Export Plug-In . SVG Version: 6.00 Build 0)  -->
<svg version="1.1" id="Capa_1" xmlns="http://www.w3.org/2000/svg" xmlns:xlink="http://www.w3.org/1999/xlink" x="0px" y="0px"
	 viewBox="0 0 470.169 470.169" style="enable-background:new 0 0 470.169 470.169;" xml:space="preserve">
<g>
	<path d="M466.273,0.699c-3.436-1.673-7.585-0.235-9.237,3.201L350.641,223.354L239.98,112.658c-1.97-1.977-4.943-2.572-7.536-1.5
		c-2.579,1.065-4.266,3.596-4.266,6.389V335.93L122.433,230.193c-1.583-1.583-3.83-2.275-6.036-1.929
		c-2.206,0.374-4.093,1.791-5.068,3.803L0.696,460.233c-1.667,3.436-0.235,7.578,3.201,9.237c0.975,0.477,2.006,0.698,3.015,0.698
		c2.565,0,5.034-1.438,6.23-3.899l106.394-219.42l110.675,110.668c1.984,1.984,4.957,2.586,7.536,1.5
		c2.586-1.065,4.266-3.596,4.266-6.389V134.245l105.738,105.759c1.569,1.576,3.796,2.275,6.036,1.929
		c2.206-0.374,4.093-1.791,5.068-3.803L469.474,9.936C471.141,6.5,469.709,2.358,466.273,0.699z"/>
</g>
<g>
</g>
<g>
</g>
<g>
</g>
<g>
</g>
<g>
</g>
<g>
</g>
<g>
</g>
<g>
</g>
<g>
</g>
<g>
</g>
<g>
</g>
<g>
</g>
<g>
</g>
<g>
</g>
<g>
</g>
</svg>
